<?xml version="1.0" encoding="UTF-8" standalone="no"?>
<svg
   xmlns:dc="http://purl.org/dc/elements/1.1/"
   xmlns:cc="http://creativecommons.org/ns#"
   xmlns:rdf="http://www.w3.org/1999/02/22-rdf-syntax-ns#"
   xmlns:svg="http://www.w3.org/2000/svg"
   xmlns="http://www.w3.org/2000/svg"
   xmlns:sodipodi="http://sodipodi.sourceforge.net/DTD/sodipodi-0.dtd"
   xmlns:inkscape="http://www.inkscape.org/namespaces/inkscape"
   width="58.258636mm"
   height="56.885418mm"
   viewBox="0 0 220.19012 215"
   version="1.1"
   id="svg72"
   sodipodi:docname="undraw_cloud_cost2.svg"
   inkscape:version="1.0.2-2 (e86c870879, 2021-01-15)">
  <metadata
     id="metadata78">
    <rdf:RDF>
      <cc:Work
         rdf:about="">
        <dc:format>image/svg+xml</dc:format>
        <dc:type
           rdf:resource="http://purl.org/dc/dcmitype/StillImage" />
        <dc:title></dc:title>
      </cc:Work>
    </rdf:RDF>
  </metadata>
  <defs
     id="defs76" />
  <sodipodi:namedview
     pagecolor="#ffffff"
     bordercolor="#666666"
     borderopacity="1"
     objecttolerance="10"
     gridtolerance="10"
     guidetolerance="10"
     inkscape:pageopacity="0"
     inkscape:pageshadow="2"
     inkscape:window-width="1372"
     inkscape:window-height="788"
     id="namedview74"
     showgrid="false"
     fit-margin-top="0"
     fit-margin-left="0"
     fit-margin-right="0"
     fit-margin-bottom="0"
     inkscape:zoom="1"
     inkscape:cx="349.19211"
     inkscape:cy="133.51805"
     inkscape:window-x="1852"
     inkscape:window-y="307"
     inkscape:window-maximized="0"
     inkscape:current-layer="svg72"
     units="mm" />
  <g
     id="g6"
     transform="matrix(0.25223838,0,0,0.25223838,32.288596,33.000001)">
    <path
       d="m 198.10146,459.50579 h -80.3571 c -2.02587,0 -3.67427,-1.64844 -3.67427,-3.67429 0,-2.02585 1.64841,-3.67352 3.67427,-3.67352 h 80.35711 c 2.02586,0 3.67351,1.64764 3.67351,3.67352 0,2.02588 -1.64764,3.67429 -3.67351,3.67429 h -2e-5 z"
       fill="#80d7e9"
       id="path2" />
    <path
       d="m 54.5875,479.17299 c 0,0.66003 0.53003,1.19 1.19006,1.19 h 204.29 c 0.65997,0 1.19,-0.52997 1.19,-1.19 0,-0.65997 -0.53003,-1.19 -1.19,-1.19 h -204.29 c -0.66003,0 -1.19006,0.53003 -1.19006,1.19 z"
       fill="#3f3d56"
       id="path4" />
  </g>
  <path
     d="m 32,171.39145 c 0,0.19886 0.15969,0.35852 0.358547,0.35852 H 189.71654 c 0.19884,0 0.35853,-0.15966 0.35853,-0.35852 0,-0.19884 -0.15969,-0.35853 -0.35853,-0.35853 H 32.358547 C 32.15969,171.03292 32,171.19261 32,171.39145 Z"
     fill="#3f3d56"
     id="path10"
     style="stroke-width:0.301285" />
  <g
     id="g16"
     transform="matrix(0.25223838,0,0,0.25223838,32.288596,33.000001)">
    <path
       d="m 7.55489,480.94674 -1.67075,-1.83057 163.0638,-148.79639 58.74879,26.33618 63.44026,-108.79395 52.12207,-25.12366 48.29266,80.48737 C 417.62423,235.727 483.01138,165.10774 561.36205,93.45953 l 1.92743,1.56058 C 489.80419,165.37453 426.93078,236.04835 391.24901,307.5406 l -44.66876,-74.66707 c -2.11026,-3.52744 -6.5448,-4.88992 -10.27161,-3.15582 l -6e-5,3e-5 c -28.49045,13.25661 -52.25458,34.89546 -68.11469,62.02293 l -39.7393,67.97107 -9.0714,-4.06644 c -30.33815,-13.5997 -65.85408,-7.89978 -90.41309,14.51025 z"
       fill="#3f3d56"
       id="path12" />
    <polygon
       points="549.62372,96.70378 549.27637,94.24652 564.01953,92.15139 565.03815,107.00612 562.5625,107.17803 558.56775,98.52049 "
       fill="#3f3d56"
       id="polygon14" />
  </g>
  <polygon
     points="363.8132,171.09089 310.6843,159.98014 319.44968,126.28289 353.59686,124.64036 "
     fill="#ffb6b6"
     id="polygon18"
     transform="matrix(0.25223838,0,0,0.25223838,32.288596,33.000001)" />
  <polygon
     points="363.8132,171.09089 310.6843,159.98014 319.44968,126.28289 353.59686,124.64036 "
     isolation="isolate"
     opacity="0.1"
     id="polygon20"
     transform="matrix(0.25223838,0,0,0.25223838,32.288596,33.000001)" />
  <circle
     cx="116.32278"
     cy="59.213745"
     fill="#ffb6b6"
     id="circle22"
     style="stroke-width:0.252238"
     r="10.396328" />
  <path
     d="m 122.05881,61.414319 h -10e-6 c 0,0 -3.94941,-7.825074 -8.57678,-7.373294 -4.62738,0.451773 -7.06519,1.001213 -7.06519,1.001213 0,0 -1.37359,-6.094545 5.09333,-8.438793 0,0 -8.22252,-8.1054 1.56709,-12.081456 9.78963,-3.976058 15.26763,1.094899 15.26763,1.094899 0,0 7.24635,7.234053 -1.88018,12.640853 0,0 6.77683,9.115578 -1.42814,16.628887 0,0 1.83519,-6.07993 -0.0796,-4.958682 -1.91485,1.121242 -2.8981,1.48637 -2.8981,1.48637 v 0 0 z"
     fill="#2f2e41"
     id="path24"
     style="stroke-width:0.252238" />
  <polygon
     points="416.88153,560.39159 430.75189,435.33205 393.46613,346.88671 287.67856,330.41161 282.19592,335.66613 242.58878,420.59115 238.25323,561.0631 304.79889,561.0631 336.01489,491.49968 357.04745,560.39159 "
     fill="#2f2e41"
     id="polygon26"
     transform="matrix(0.25223838,0,0,0.25223838,32.288596,33.000001)" />
  <path
     d="m 122.2403,72.489385 h -11.20976 l -12.19313,6.561562 2.84334,12.685685 c 0,0 -0.65616,7.655152 0.87487,13.341828 1.53104,5.68668 0.87487,13.12312 0.87487,13.12312 l 28.10535,2.29656 0.87488,-25.808804 -0.43744,-17.278779 -9.73298,-4.921168 v 0 0 z"
     fill="#e6e6e6"
     id="path28"
     style="stroke-width:0.252238" />
  <path
     d="m 100.69652,79.160309 c 0,0 -6.78028,0.218718 -7.873875,4.593094 -1.0936,4.374373 -1.968467,26.902397 -1.968467,26.902397 0,0 0.656152,13.36767 7.983232,7.01191 7.32708,-6.35576 6.67092,-25.603 6.67092,-25.603 l -4.81181,-12.904397 v 0 z"
     fill="#e6e6e6"
     id="path30"
     style="stroke-width:0.252238" />
  <path
     d="m 166.46103,190.74776 h -39.95678 c -1.3532,0 -2.45418,-1.10084 -2.45418,-2.45419 v -41.30603 c 0,-1.35334 1.10098,-2.45419 2.45418,-2.45419 h 39.95678 c 1.35335,0 2.45419,1.10085 2.45419,2.45419 v 41.30603 c 0,1.35335 -1.10084,2.45419 -2.45419,2.45419 z"
     fill="#ffffff"
     id="path32"
     style="stroke-width:0.252238" />
  <path
     d="m 166.46103,191 h -39.95688 c -1.49224,0 -2.70639,-1.21402 -2.70639,-2.70639 v -41.30613 c 0,-1.49224 1.21415,-2.70639 2.70639,-2.70639 h 39.95688 c 1.49225,0 2.70639,1.21415 2.70639,2.70639 v 41.30613 c 0,1.49237 -1.21414,2.70639 -2.70639,2.70639 z m -39.95688,-46.21444 c -1.21415,0 -2.20191,0.98777 -2.20191,2.20192 v 41.30613 c 0,1.21414 0.98777,2.2019 2.20191,2.2019 h 39.95688 c 1.21414,0 2.20191,-0.98776 2.20191,-2.2019 v -41.30613 c 0,-1.21415 -0.98777,-2.20192 -2.20191,-2.20192 z"
     fill="#3f3d56"
     id="path34"
     style="stroke-width:0.252238" />
  <g
     id="g42"
     transform="matrix(0.25223838,0,0,0.25223838,32.288596,33.000001)">
    <path
       d="m 458.974,582.37066 h -13.05609 c -1.58966,0 -2.88275,-0.99817 -2.88275,-2.22522 v -56.21143 c 0,-1.22705 1.29309,-2.22522 2.88275,-2.22522 H 458.974 c 1.58966,0 2.88275,0.99817 2.88275,2.22522 v 56.21143 c 0,1.22705 -1.29309,2.22522 -2.88275,2.22522 z"
       fill="#80d7e9"
       id="path36" />
    <path
       d="m 415.80945,549.24474 c -1.28421,0 -2.32919,0.80664 -2.32919,1.79791 v 29.04004 c 0,0.99127 1.04498,1.79791 2.32919,1.79791 h 13.05612 c 1.28421,0 2.32919,-0.80664 2.32919,-1.79791 v -29.04004 c 0,-0.99127 -1.04498,-1.79791 -2.32919,-1.79791 z"
       fill="#80d7e9"
       id="path38" />
    <path
       d="m 489.0824,582.37066 h -13.05609 c -1.58966,0 -2.88275,-0.99817 -2.88275,-2.22522 v -92.12048 c 0,-1.22705 1.29309,-2.22519 2.88275,-2.22519 h 13.05609 c 1.58966,0 2.88275,0.99817 2.88275,2.22519 v 92.12048 c 0,1.22705 -1.29309,2.22522 -2.88275,2.22522 z"
       fill="#80d7e9"
       id="path40" />
  </g>
  <g
     id="g50"
     transform="matrix(0.25223838,0,0,0.25223838,32.288596,33.000001)">
    <path
       d="M 208.12485,178.57206 H 193.211 c -1.81583,0 -3.29295,-1.14018 -3.29295,-2.54182 V 111.8206 c 0,-1.40163 1.47713,-2.54182 3.29295,-2.54182 h 14.91385 c 1.81583,0 3.29295,1.14018 3.29295,2.54182 v 64.20965 c 0,1.40163 -1.47713,2.54182 -3.29295,2.54182 v -2e-5 z"
       fill="#80d7e9"
       id="path44" />
    <path
       d="m 158.81854,140.73272 c -1.46693,0 -2.66061,0.92139 -2.66061,2.05371 v 33.17207 c 0,1.13232 1.19368,2.05371 2.66061,2.05371 h 14.91385 c 1.46693,0 2.66061,-0.92139 2.66061,-2.05371 v -33.17207 c 0,-1.13232 -1.19368,-2.05371 -2.66061,-2.05371 z"
       fill="#80d7e9"
       id="path46" />
    <path
       d="m 242.5173,178.57206 h -14.91385 c -1.81583,0 -3.29295,-1.14018 -3.29295,-2.54182 V 70.80214 c 0,-1.40163 1.47713,-2.54182 3.29295,-2.54182 h 14.91385 c 1.81583,0 3.29294,1.14018 3.29294,2.54182 v 105.22811 c 0,1.40163 -1.47711,2.54182 -3.29294,2.54182 v -2e-5 z"
       fill="#80d7e9"
       id="path48" />
  </g>
  <path
     d="m 140.35697,150.5433 c 1.94845,-0.18657 3.29018,-2.81953 2.99702,-5.88222 -0.1003,-1.22506 -0.49255,-2.40826 -1.14388,-3.45061 l -0.37556,-3.4663 0.0576,-0.0173 0.94396,-16.43535 c 0.21947,-3.82142 -1.29322,-7.57646 -4.20766,-10.0579 -1.73372,-1.47616 -3.58324,-2.22355 -4.77255,-0.35843 -1.97347,3.09484 0.58274,15.85235 2.2614,23.10544 l 0.65083,7.75073 c -0.44211,1.14731 -0.60298,2.38382 -0.4691,3.60602 0.29263,3.06168 2.10958,5.3924 4.05801,5.20586 z"
     fill="#ffb6b6"
     id="path52"
     style="stroke-width:0.252238" />
  <path
     d="m 129.56738,77.847995 c 0,0 5.68668,-2.187188 8.31132,4.374373 2.62461,6.561561 5.46796,38.931922 5.46796,38.931922 l -13.34184,-2.40591 z"
     fill="#e6e6e6"
     id="path54"
     style="stroke-width:0.252238" />
  <g
     id="g64"
     transform="matrix(0.25223838,0,0,0.25223838,32.288596,33.000001)">
    <path
       d="m 76.09184,165.07636 h -30.3571 c -2.02587,0 -3.67427,-1.64844 -3.67427,-3.67429 0,-2.02585 1.64841,-3.67352 3.67427,-3.67352 h 30.3571 c 2.02586,0 3.67351,1.64764 3.67351,3.67352 0,2.02588 -1.64764,3.67429 -3.67351,3.67429 z"
       fill="#e6e6e6"
       id="path56" />
    <path
       d="m 76.09184,112.99718 h -30.3571 c -2.02587,0 -3.67427,-1.64844 -3.67427,-3.67429 0,-2.02585 1.64841,-3.67352 3.67427,-3.67352 h 30.3571 c 2.02586,0 3.67351,1.64764 3.67351,3.67352 0,2.02588 -1.64764,3.67429 -3.67351,3.67429 z"
       fill="#e6e6e6"
       id="path58" />
    <path
       d="m 76.09184,75.44008 h -30.3571 c -2.02587,0 -3.67427,-1.64844 -3.67427,-3.67429 0,-2.02585 1.64841,-3.67352 3.67427,-3.67352 h 30.3571 c 2.02586,0 3.67351,1.64764 3.67351,3.67352 0,2.02588 -1.64764,3.67429 -3.67351,3.67429 z"
       fill="#e6e6e6"
       id="path60" />
    <path
       d="m 40.84269,178.75373 c 0,0.66003 0.53003,1.19 1.19006,1.19 h 204.28999 c 0.65997,0 1.19,-0.52997 1.19,-1.19 0,-0.65997 -0.53003,-1.19 -1.19,-1.19 H 42.03275 c -0.66003,0 -1.19006,0.53003 -1.19006,1.19 z"
       fill="#3f3d56"
       id="path62" />
  </g>
  <path
     d="m 141.97261,155.77797 c 0,0.16649 0.13369,0.30017 0.30017,0.30017 h 51.52978 c 0.16647,0 0.30017,-0.13368 0.30017,-0.30017 0,-0.16647 -0.1337,-0.30016 -0.30017,-0.30016 h -51.52978 c -0.16648,0 -0.30017,0.13369 -0.30017,0.30016 z"
     fill="#3f3d56"
     id="path66"
     style="stroke-width:0.252238" />
  <path
     d="m 126.83831,180.2451 c 0,0.16649 0.13369,0.30015 0.30018,0.30015 h 51.52977 c 0.16648,0 0.30016,-0.13366 0.30016,-0.30015 0,-0.16647 -0.13368,-0.30017 -0.30016,-0.30017 h -51.52977 c -0.16649,0 -0.30018,0.1337 -0.30018,0.30017 z"
     fill="#3f3d56"
     id="path68"
     style="stroke-width:0.252238" />
  <path
     d="m 92.186921,76.571054 c -1.948445,0.186566 -3.290188,2.819513 -2.997035,5.882218 0.100328,1.22506 0.492564,2.408249 1.143897,3.450606 l 0.375557,3.4663 -0.05753,0.01725 -0.943945,16.435342 c -0.219479,3.82141 1.293236,7.57645 4.207654,10.0579 1.733721,1.47616 3.583234,2.22356 4.772551,0.35843 1.97347,-3.09483 -0.58274,-15.85234 -2.261394,-23.105439 l -0.650835,-7.75072 c 0.442118,-1.147315 0.602978,-2.38382 0.469103,-3.606028 -0.292634,-3.061678 -2.109585,-5.392399 -4.058022,-5.20586 v 0 z"
     fill="#ffb6b6"
     id="path70"
     style="stroke-width:0.252238" />
</svg>
