<?xml version="1.0" encoding="UTF-8" standalone="no"?>
<svg
   xmlns:dc="http://purl.org/dc/elements/1.1/"
   xmlns:cc="http://creativecommons.org/ns#"
   xmlns:rdf="http://www.w3.org/1999/02/22-rdf-syntax-ns#"
   xmlns:svg="http://www.w3.org/2000/svg"
   xmlns="http://www.w3.org/2000/svg"
   xmlns:sodipodi="http://sodipodi.sourceforge.net/DTD/sodipodi-0.dtd"
   xmlns:inkscape="http://www.inkscape.org/namespaces/inkscape"
   width="527.43213"
   height="515"
   viewBox="0 0 527.43212 514.99999"
   version="1.1"
   id="svg72"
   sodipodi:docname="undraw_cloud_cost.svg"
   inkscape:version="1.0.2-2 (e86c870879, 2021-01-15)">
  <metadata
     id="metadata78">
    <rdf:RDF>
      <cc:Work
         rdf:about="">
        <dc:format>image/svg+xml</dc:format>
        <dc:type
           rdf:resource="http://purl.org/dc/dcmitype/StillImage" />
        <dc:title></dc:title>
      </cc:Work>
    </rdf:RDF>
  </metadata>
  <defs
     id="defs76" />
  <sodipodi:namedview
     pagecolor="#ffffff"
     bordercolor="#666666"
     borderopacity="1"
     objecttolerance="10"
     gridtolerance="10"
     guidetolerance="10"
     inkscape:pageopacity="0"
     inkscape:pageshadow="2"
     inkscape:window-width="1372"
     inkscape:window-height="788"
     id="namedview74"
     showgrid="false"
     fit-margin-top="0"
     fit-margin-left="0"
     fit-margin-right="0"
     fit-margin-bottom="0"
     inkscape:zoom="0.5236341"
     inkscape:cx="374.53463"
     inkscape:cy="313.1958"
     inkscape:window-x="1793"
     inkscape:window-y="260"
     inkscape:window-maximized="0"
     inkscape:current-layer="svg72" />
  <g
     id="g6"
     transform="matrix(0.8221694,0,0,0.8221694,0,2.8158971e-6)">
    <path
       d="m 198.10146,459.50579 h -80.3571 c -2.02587,0 -3.67427,-1.64844 -3.67427,-3.67429 0,-2.02585 1.64841,-3.67352 3.67427,-3.67352 h 80.35711 c 2.02586,0 3.67351,1.64764 3.67351,3.67352 0,2.02588 -1.64764,3.67429 -3.67351,3.67429 h -2e-5 z"
       fill="#80d7e9"
       id="path2" />
    <path
       d="m 54.5875,479.17299 c 0,0.66003 0.53003,1.19 1.19006,1.19 h 204.29 c 0.65997,0 1.19,-0.52997 1.19,-1.19 0,-0.65997 -0.53003,-1.19 -1.19,-1.19 h -204.29 c -0.66003,0 -1.19006,0.53003 -1.19006,1.19 z"
       fill="#3f3d56"
       id="path4" />
  </g>
  <circle
     cx="399.25137"
     cy="143.38905"
     fill="#ff6884"
     id="circle8"
     style="stroke-width:0.822169"
     r="53.44101" />
  <path
     d="m 0,461.49064 c 0,0.54266 0.43577445,0.97838 0.97843092,0.97838 H 430.38927 c 0.54261,0 0.97838,-0.43572 0.97838,-0.97838 0,-0.54261 -0.43577,-0.97838 -0.97838,-0.97838 H 0.97843092 C 0.43577445,460.51226 0,460.94803 0,461.49064 Z"
     fill="#3f3d56"
     id="path10"
     style="stroke-width:0.822169" />
  <g
     id="g16"
     transform="matrix(0.8221694,0,0,0.8221694,0,2.8158971e-6)">
    <path
       d="m 7.55489,480.94674 -1.67075,-1.83057 163.0638,-148.79639 58.74879,26.33618 63.44026,-108.79395 52.12207,-25.12366 48.29266,80.48737 C 417.62423,235.727 483.01138,165.10774 561.36205,93.45953 l 1.92743,1.56058 C 489.80419,165.37453 426.93078,236.04835 391.24901,307.5406 l -44.66876,-74.66707 c -2.11026,-3.52744 -6.5448,-4.88992 -10.27161,-3.15582 l -6e-5,3e-5 c -28.49045,13.25661 -52.25458,34.89546 -68.11469,62.02293 l -39.7393,67.97107 -9.0714,-4.06644 c -30.33815,-13.5997 -65.85408,-7.89978 -90.41309,14.51025 z"
       fill="#3f3d56"
       id="path12" />
    <polygon
       points="564.01953,92.15139 565.03815,107.00612 562.5625,107.17803 558.56775,98.52049 549.62372,96.70378 549.27637,94.24652 "
       fill="#3f3d56"
       id="polygon14" />
  </g>
  <polygon
     points="319.44968,126.28289 353.59686,124.64036 363.8132,171.09089 310.6843,159.98014 "
     fill="#ffb6b6"
     id="polygon18"
     transform="matrix(0.8221694,0,0,0.8221694,0,2.8158971e-6)" />
  <polygon
     points="319.44968,126.28289 353.59686,124.64036 363.8132,171.09089 310.6843,159.98014 "
     isolation="isolate"
     opacity="0.1"
     id="polygon20"
     transform="matrix(0.8221694,0,0,0.8221694,0,2.8158971e-6)" />
  <circle
     cx="273.90891"
     cy="85.443527"
     fill="#ffb6b6"
     id="circle22"
     style="stroke-width:0.822169"
     r="33.886765" />
  <path
     d="m 292.60547,92.616292 h -5e-5 c 0,0 -12.87307,-25.505777 -27.95595,-24.033206 -15.08292,1.472554 -23.02895,3.263447 -23.02895,3.263447 0,0 -4.47722,-19.865127 16.60166,-27.506187 0,0 -26.80125,-26.419501 5.10795,-39.3794313 31.90922,-12.959938 49.76473,3.5688156 49.76473,3.5688156 0,0 23.61941,23.5793497 -6.12843,41.2027817 0,0 22.08902,29.712166 -4.65502,54.201748 0,0 5.98177,-19.81749 -0.25962,-16.16279 -6.24141,3.654682 -9.44631,4.844814 -9.44631,4.844814 v 0 0 z"
     fill="#2f2e41"
     id="path24"
     style="stroke-width:0.822169" />
  <polygon
     points="393.46613,346.88671 287.67856,330.41161 282.19592,335.66613 242.58878,420.59115 238.25323,561.0631 304.79889,561.0631 336.01489,491.49968 357.04745,560.39159 416.88153,560.39159 430.75189,435.33205 "
     fill="#2f2e41"
     id="polygon26"
     transform="matrix(0.8221694,0,0,0.8221694,0,2.8158971e-6)" />
  <path
     d="m 293.19703,128.7154 h -36.53816 l -39.74344,21.38737 9.26784,41.3489 c 0,0 -2.13872,24.95192 2.85165,43.48762 4.9904,18.53572 2.85164,42.77473 2.85164,42.77473 l 91.60922,7.48559 2.85164,-84.12362 -1.42582,-56.32006 -31.72458,-16.04052 v 0 0 z"
     fill="#e6e6e6"
     id="path28"
     style="stroke-width:0.822169" />
  <path
     d="m 222.97519,150.45923 c 0,0 -22.10027,0.71291 -25.66484,14.97116 -3.56458,14.25825 -6.41621,87.68819 -6.41621,87.68819 0,0 2.13873,43.57185 26.02129,22.8553 23.88256,-20.71655 21.74383,-83.45283 21.74383,-83.45283 l -15.68407,-42.06181 v 0 z"
     fill="#e6e6e6"
     id="path30"
     style="stroke-width:0.822169" />
  <path
     d="M 437.3342,514.17783 H 307.09535 c -4.41076,0 -7.99939,-3.58816 -7.99939,-7.99939 V 371.54165 c 0,-4.41121 3.58864,-7.99939 7.99939,-7.99939 H 437.3342 c 4.41124,0 7.99939,3.58819 7.99939,7.99939 v 134.63679 c 0,4.41123 -3.58816,7.99939 -7.99939,7.99939 z"
     fill="#ffffff"
     id="path32"
     style="stroke-width:0.822169" />
  <path
     d="M 437.3342,515 H 307.09502 c -4.86397,0 -8.82146,-3.9571 -8.82146,-8.82146 V 371.54148 c 0,-4.86398 3.9575,-8.82146 8.82146,-8.82146 H 437.3342 c 4.86397,0 8.82146,3.95749 8.82146,8.82146 v 134.63706 c 0,4.86436 -3.9575,8.82146 -8.82146,8.82146 z M 307.09502,364.36435 c -3.9575,0 -7.17712,3.21963 -7.17712,7.17712 v 134.63706 c 0,3.9575 3.21963,7.17712 7.17712,7.17712 H 437.3342 c 3.9575,0 7.17712,-3.21963 7.17712,-7.17712 V 371.54147 c 0,-3.9575 -3.21963,-7.17712 -7.17712,-7.17712 z"
     fill="#3f3d56"
     id="path34"
     style="stroke-width:0.822169" />
  <g
     id="g42"
     transform="matrix(0.8221694,0,0,0.8221694,0,2.8158971e-6)">
    <path
       d="m 458.974,582.37066 h -13.05609 c -1.58966,0 -2.88275,-0.99817 -2.88275,-2.22522 v -56.21143 c 0,-1.22705 1.29309,-2.22522 2.88275,-2.22522 H 458.974 c 1.58966,0 2.88275,0.99817 2.88275,2.22522 v 56.21143 c 0,1.22705 -1.29309,2.22522 -2.88275,2.22522 z"
       fill="#80d7e9"
       id="path36" />
    <path
       d="m 415.80945,549.24474 c -1.28421,0 -2.32919,0.80664 -2.32919,1.79791 v 29.04004 c 0,0.99127 1.04498,1.79791 2.32919,1.79791 h 13.05612 c 1.28421,0 2.32919,-0.80664 2.32919,-1.79791 v -29.04004 c 0,-0.99127 -1.04498,-1.79791 -2.32919,-1.79791 z"
       fill="#80d7e9"
       id="path38" />
    <path
       d="m 489.0824,582.37066 h -13.05609 c -1.58966,0 -2.88275,-0.99817 -2.88275,-2.22522 v -92.12048 c 0,-1.22705 1.29309,-2.22519 2.88275,-2.22519 h 13.05609 c 1.58966,0 2.88275,0.99817 2.88275,2.22519 v 92.12048 c 0,1.22705 -1.29309,2.22522 -2.88275,2.22522 z"
       fill="#80d7e9"
       id="path40" />
  </g>
  <g
     id="g50"
     transform="matrix(0.8221694,0,0,0.8221694,0,2.8158971e-6)">
    <path
       d="M 208.12485,178.57206 H 193.211 c -1.81583,0 -3.29295,-1.14018 -3.29295,-2.54182 V 111.8206 c 0,-1.40163 1.47713,-2.54182 3.29295,-2.54182 h 14.91385 c 1.81583,0 3.29295,1.14018 3.29295,2.54182 v 64.20965 c 0,1.40163 -1.47713,2.54182 -3.29295,2.54182 v -2e-5 z"
       fill="#80d7e9"
       id="path44" />
    <path
       d="m 158.81854,140.73272 c -1.46693,0 -2.66061,0.92139 -2.66061,2.05371 v 33.17207 c 0,1.13232 1.19368,2.05371 2.66061,2.05371 h 14.91385 c 1.46693,0 2.66061,-0.92139 2.66061,-2.05371 v -33.17207 c 0,-1.13232 -1.19368,-2.05371 -2.66061,-2.05371 z"
       fill="#80d7e9"
       id="path46" />
    <path
       d="m 242.5173,178.57206 h -14.91385 c -1.81583,0 -3.29295,-1.14018 -3.29295,-2.54182 V 70.80214 c 0,-1.40163 1.47713,-2.54182 3.29295,-2.54182 h 14.91385 c 1.81583,0 3.29294,1.14018 3.29294,2.54182 v 105.22811 c 0,1.40163 -1.47711,2.54182 -3.29294,2.54182 v -2e-5 z"
       fill="#80d7e9"
       id="path48" />
  </g>
  <path
     d="m 352.2482,383.13163 c 6.35094,-0.60812 10.72434,-9.19019 9.76878,-19.17307 -0.32698,-3.99305 -1.6055,-7.84966 -3.72851,-11.24722 l -1.22412,-11.29839 0.18753,-0.0562 3.07681,-53.57091 c 0.71538,-12.45588 -4.21527,-24.69542 -13.71483,-32.78367 -5.65106,-4.81153 -11.67953,-7.24766 -15.55611,-1.1683 -6.43251,10.08759 1.89943,51.67064 7.37102,75.31205 l 2.12138,25.26344 c -1.44108,3.73966 -1.96539,7.77004 -1.52904,11.7538 0.95385,9.97952 6.87618,17.57648 13.22709,16.96848 z"
     fill="#ffb6b6"
     id="path52"
     style="stroke-width:0.822169" />
  <path
     d="m 317.07959,146.18175 c 0,0 18.53571,-7.12912 27.09067,14.25824 8.55495,21.38737 17.82279,126.89837 17.82279,126.89837 l -43.48764,-7.84203 z"
     fill="#e6e6e6"
     id="path54"
     style="stroke-width:0.822169" />
  <g
     id="g64"
     transform="matrix(0.8221694,0,0,0.8221694,0,2.8158971e-6)">
    <path
       d="m 76.09184,165.07636 h -30.3571 c -2.02587,0 -3.67427,-1.64844 -3.67427,-3.67429 0,-2.02585 1.64841,-3.67352 3.67427,-3.67352 h 30.3571 c 2.02586,0 3.67351,1.64764 3.67351,3.67352 0,2.02588 -1.64764,3.67429 -3.67351,3.67429 z"
       fill="#e6e6e6"
       id="path56" />
    <path
       d="m 76.09184,112.99718 h -30.3571 c -2.02587,0 -3.67427,-1.64844 -3.67427,-3.67429 0,-2.02585 1.64841,-3.67352 3.67427,-3.67352 h 30.3571 c 2.02586,0 3.67351,1.64764 3.67351,3.67352 0,2.02588 -1.64764,3.67429 -3.67351,3.67429 z"
       fill="#e6e6e6"
       id="path58" />
    <path
       d="m 76.09184,75.44008 h -30.3571 c -2.02587,0 -3.67427,-1.64844 -3.67427,-3.67429 0,-2.02585 1.64841,-3.67352 3.67427,-3.67352 h 30.3571 c 2.02586,0 3.67351,1.64764 3.67351,3.67352 0,2.02588 -1.64764,3.67429 -3.67351,3.67429 z"
       fill="#e6e6e6"
       id="path60" />
    <path
       d="m 40.84269,178.75373 c 0,0.66003 0.53003,1.19 1.19006,1.19 h 204.28999 c 0.65997,0 1.19,-0.52997 1.19,-1.19 0,-0.65997 -0.53003,-1.19 -1.19,-1.19 H 42.03275 c -0.66003,0 -1.19006,0.53003 -1.19006,1.19 z"
       fill="#3f3d56"
       id="path62" />
  </g>
  <path
     d="m 357.51435,400.19402 c 0,0.54266 0.43578,0.97838 0.97843,0.97838 h 167.96097 c 0.54261,0 0.9784,-0.43572 0.9784,-0.97838 0,-0.54261 -0.43579,-0.97838 -0.9784,-0.97838 H 358.49278 c -0.54265,0 -0.97843,0.43577 -0.97843,0.97838 z"
     fill="#3f3d56"
     id="path66"
     style="stroke-width:0.822169" />
  <path
     d="m 308.18419,479.94445 c 0,0.54266 0.43577,0.97839 0.97843,0.97839 H 477.1236 c 0.54261,0 0.97838,-0.43573 0.97838,-0.97839 0,-0.5426 -0.43577,-0.97838 -0.97838,-0.97838 H 309.16262 c -0.54266,0 -0.97843,0.43578 -0.97843,0.97838 z"
     fill="#3f3d56"
     id="path68"
     style="stroke-width:0.822169" />
  <path
     d="m 195.23821,142.01958 c -6.35094,0.60811 -10.72434,9.19017 -9.76881,19.17305 0.32701,3.99307 1.6055,7.84966 3.72852,11.24722 l 1.22412,11.29839 -0.18751,0.0562 -3.07678,53.57091 c -0.71539,12.45588 4.21529,24.69542 13.71483,32.78367 5.65105,4.81153 11.67953,7.24766 15.55611,1.1683 6.4325,-10.08758 -1.89944,-51.67064 -7.37102,-75.31204 l -2.12139,-25.26344 c 1.44108,-3.73966 1.9654,-7.77004 1.52905,-11.75382 -0.95385,-9.97952 -6.87618,-17.57649 -13.2271,-16.96847 v 0 z"
     fill="#ffb6b6"
     id="path70"
     style="stroke-width:0.822169" />
</svg>
